<svg width="70" height="17" viewBox="0 0 70 17" fill="none" xmlns="http://www.w3.org/2000/svg">
<path opacity="0.8" d="M0.2 12H2.024V0.879999H0.2V12ZM16.9148 12H18.7228V6.8C18.7228 4.336 17.1548 3.04 15.0908 3.04C13.8108 3.04 12.5628 3.712 12.0188 4.784C11.4108 3.632 10.2428 3.04 8.85075 3.04C7.79475 3.04 6.83475 3.472 6.24275 4.192V3.184H4.41875V12H6.24275V7.072C6.24275 5.456 7.12275 4.624 8.46675 4.624C9.79475 4.624 10.6748 5.456 10.6748 7.072V12H12.4828V7.072C12.4828 5.456 13.3628 4.624 14.7068 4.624C16.0348 4.624 16.9148 5.456 16.9148 7.072V12ZM22.8678 4.48V3.184H21.0438V16.192H22.8678V10.72C23.4438 11.408 24.4838 12.144 25.9398 12.144C28.2598 12.144 30.0838 10.272 30.0838 7.552C30.0838 4.832 28.2598 3.04 25.9398 3.04C24.4998 3.04 23.4278 3.744 22.8678 4.48ZM28.2278 7.552C28.2278 9.456 26.9158 10.56 25.5398 10.56C24.1798 10.56 22.8678 9.488 22.8678 7.584C22.8678 5.696 24.1798 4.624 25.5398 4.624C26.9158 4.624 28.2278 5.648 28.2278 7.552ZM40.2875 7.584C40.2875 4.816 38.3035 3.04 35.7915 3.04C33.2795 3.04 31.2955 4.816 31.2955 7.584C31.2955 10.352 33.1995 12.144 35.7115 12.144C38.2395 12.144 40.2875 10.352 40.2875 7.584ZM33.1515 7.584C33.1515 5.584 34.3835 4.624 35.7595 4.624C37.1195 4.624 38.4155 5.584 38.4155 7.584C38.4155 9.584 37.0715 10.56 35.7115 10.56C34.3355 10.56 33.1515 9.584 33.1515 7.584ZM43.9146 7.36C43.9146 5.488 44.7466 4.928 46.0906 4.928H46.5546V3.04C45.3066 3.04 44.4266 3.584 43.9146 4.464V3.184H42.0906V12H43.9146V7.36ZM48.5193 9.552C48.5193 11.344 49.4953 12 51.0633 12H52.5033V10.48H51.3833C50.6153 10.48 50.3593 10.208 50.3593 9.552V4.672H52.5033V3.184H50.3593V0.992H48.5193V3.184H47.4793V4.672H48.5193V9.552ZM53.5764 7.552C53.5764 10.272 55.4164 12.144 57.7044 12.144C59.1764 12.144 60.2324 11.44 60.7924 10.688V12H62.6324V3.184H60.7924V4.464C60.2484 3.744 59.2244 3.04 57.7364 3.04C55.4164 3.04 53.5764 4.832 53.5764 7.552ZM60.7924 7.584C60.7924 9.488 59.4964 10.56 58.1204 10.56C56.7604 10.56 55.4484 9.456 55.4484 7.552C55.4484 5.648 56.7604 4.624 58.1204 4.624C59.4964 4.624 60.7924 5.696 60.7924 7.584ZM66.8521 7.36C66.8521 5.488 67.6841 4.928 69.0281 4.928H69.4921V3.04C68.2441 3.04 67.3641 3.584 66.8521 4.464V3.184H65.0281V12H66.8521V7.36Z" fill="white"/>
</svg>
