<svg width="74" height="18" viewBox="0 0 74 18" fill="none" xmlns="http://www.w3.org/2000/svg">
<path d="M0.104 1.832V13H6.024V11.224H2.344V1.832H0.104ZM7.44775 13H9.68775V4.136H7.44775V13ZM8.58375 3.08C9.36775 3.08 9.95975 2.504 9.95975 1.768C9.95975 1.032 9.36775 0.455999 8.58375 0.455999C7.78375 0.455999 7.20775 1.032 7.20775 1.768C7.20775 2.504 7.78375 3.08 8.58375 3.08ZM18.7809 10.472C18.7169 7.224 13.8049 8.232 13.8049 6.616C13.8049 6.104 14.2369 5.768 15.0689 5.768C15.9489 5.768 16.4929 6.232 16.5569 6.92H18.7009C18.5729 5.16 17.2769 3.992 15.1329 3.992C12.9409 3.992 11.6289 5.176 11.6289 6.648C11.6289 9.896 16.6369 8.888 16.6369 10.472C16.6369 10.984 16.1569 11.384 15.2769 11.384C14.3809 11.384 13.7569 10.872 13.6769 10.2H11.4209C11.5169 11.848 13.0689 13.144 15.2929 13.144C17.4529 13.144 18.7809 11.992 18.7809 10.472ZM20.9716 10.248C20.9716 12.28 22.1076 13 23.8036 13H25.2116V11.112H24.1716C23.4676 11.112 23.2276 10.856 23.2276 10.264V5.976H25.2116V4.136H23.2276V1.944H20.9716V4.136H19.9156V5.976H20.9716V10.248ZM26.2467 8.536C26.2467 11.304 28.0388 13.144 30.2788 13.144C31.6868 13.144 32.6948 12.472 33.2228 11.704V13H35.4788V4.136H33.2228V5.4C32.6948 4.664 31.7188 3.992 30.2948 3.992C28.0388 3.992 26.2467 5.768 26.2467 8.536ZM33.2228 8.568C33.2228 10.248 32.1028 11.176 30.8708 11.176C29.6708 11.176 28.5348 10.216 28.5348 8.536C28.5348 6.856 29.6708 5.96 30.8708 5.96C32.1028 5.96 33.2228 6.888 33.2228 8.568ZM37.0905 8.536C37.0905 11.304 38.8825 13.144 41.1385 13.144C42.5305 13.144 43.5385 12.456 44.0665 11.688V13.064C44.0665 14.712 43.1065 15.416 41.8745 15.416C40.7545 15.416 39.9225 14.888 39.6985 14.088H37.4745C37.6985 16.12 39.4425 17.368 41.9385 17.368C44.8505 17.368 46.3225 15.464 46.3225 13.064V4.136H44.0665V5.4C43.5385 4.632 42.5305 3.992 41.1385 3.992C38.8825 3.992 37.0905 5.768 37.0905 8.536ZM44.0665 8.568C44.0665 10.248 42.9465 11.176 41.7145 11.176C40.5145 11.176 39.3785 10.216 39.3785 8.536C39.3785 6.856 40.5145 5.96 41.7145 5.96C42.9465 5.96 44.0665 6.888 44.0665 8.568ZM52.3183 5.832C53.4703 5.832 54.3983 6.568 54.4303 7.736H50.2223C50.3983 6.52 51.2463 5.832 52.3183 5.832ZM56.5263 10.216H54.1103C53.8223 10.808 53.2943 11.288 52.3343 11.288C51.2143 11.288 50.3183 10.552 50.2063 9.24H56.6863C56.7343 8.952 56.7503 8.664 56.7503 8.376C56.7503 5.736 54.9423 3.992 52.3823 3.992C49.7582 3.992 47.9342 5.768 47.9342 8.568C47.9342 11.352 49.8063 13.144 52.3823 13.144C54.5743 13.144 56.0463 11.848 56.5263 10.216ZM70.7853 13H73.0253V7.8C73.0253 5.352 71.5213 4.008 69.3933 4.008C68.0973 4.008 66.9293 4.696 66.3533 5.704C65.7453 4.6 64.6093 4.008 63.2333 4.008C62.1293 4.008 61.1853 4.472 60.6253 5.208V4.136H58.3853V13H60.6253V8.104C60.6253 6.696 61.4093 5.96 62.6253 5.96C63.8093 5.96 64.5933 6.696 64.5933 8.104V13H66.8333V8.104C66.8333 6.696 67.6173 5.96 68.8173 5.96C70.0013 5.96 70.7853 6.696 70.7853 8.104V13Z" fill="white"/>
</svg>
