<?xml version="1.0" encoding="UTF-8" standalone="no"?>
<svg
   xmlns:dc="http://purl.org/dc/elements/1.1/"
   xmlns:cc="http://creativecommons.org/ns#"
   xmlns:rdf="http://www.w3.org/1999/02/22-rdf-syntax-ns#"
   xmlns:svg="http://www.w3.org/2000/svg"
   xmlns="http://www.w3.org/2000/svg"
   xmlns:sodipodi="http://sodipodi.sourceforge.net/DTD/sodipodi-0.dtd"
   xmlns:inkscape="http://www.inkscape.org/namespaces/inkscape"
   inkscape:version="1.0 (4035a4fb49, 2020-05-01)"
   sodipodi:docname="logo.svg"
   id="svg26"
   version="1.1"
   fill="none"
   viewBox="0 0 188 32"
   height="32"
   width="188">
  <metadata
     id="metadata32">
    <rdf:RDF>
      <cc:Work
         rdf:about="">
        <dc:format>image/svg+xml</dc:format>
        <dc:type
           rdf:resource="http://purl.org/dc/dcmitype/StillImage" />
      </cc:Work>
    </rdf:RDF>
  </metadata>
  <defs
     id="defs30" />
  <sodipodi:namedview
     inkscape:current-layer="svg26"
     inkscape:window-maximized="1"
     inkscape:window-y="-8"
     inkscape:window-x="1358"
     inkscape:cy="21.829457"
     inkscape:cx="94"
     inkscape:zoom="6.8617021"
     showgrid="false"
     id="namedview28"
     inkscape:window-height="1017"
     inkscape:window-width="1920"
     inkscape:pageshadow="2"
     inkscape:pageopacity="0"
     guidetolerance="10"
     gridtolerance="10"
     objecttolerance="10"
     borderopacity="1"
     bordercolor="#666666"
     pagecolor="#ffffff" />
  <path
     d="M 2.286233,8.6814993 C 2.325875,8.5864284 2.5187978,8.4229359 3.3426719,8.3325 L 2.3841862,8.8983223 C 2.2549858,8.8061477 2.2652025,8.7307804 2.286233,8.6814993 Z M 3.7404889,6.8216932 c 0.608744,-0.1629064 1.2763863,-0.1831953 1.7889794,-0.1831953 0.2235445,0 0.4470927,0.00398 0.6688343,0.00925 L 5.0847807,7.3045853 4.6479008,7.5712664 C 4.2512797,7.5811118 3.0337917,7.7312762 2.1924916,8.0472337 2.5518472,7.4472029 3.1323471,6.9845695 3.7404889,6.821662 Z m 18.4377241,-5.5915988 0.0096,0.055656 c 0.766188,0.031307 1.564222,1.4215243 2.091841,2.340994 0.137012,0.2376936 0.255996,0.4446612 0.352745,0.5913332 1.06906,1.618058 2.168763,3.3213366 3.36101,5.2037551 -0.135209,0.00691 -0.26681,0.015655 -0.391808,0.02376 -0.220541,0.015091 -0.418245,0.027838 -0.603935,0.027838 -0.0017,0 -0.0037,0 -0.0054,0 -0.456109,-0.007 -0.912217,-0.00807 -1.36772,-0.00925 l -0.646003,0.026106 -0.06129,0.010454 0.02765,-0.067828 -0.239167,-0.2730601 C 23.955099,8.3041566 23.246002,7.4965784 22.689535,6.524353 22.62885,6.4188406 22.509258,6.3533298 22.377056,6.3533298 c -0.06309,0 -0.126198,0.015091 -0.180882,0.044057 -0.608743,0.3188579 -1.230706,0.4869816 -1.797987,0.4869816 -0.74696,0 -1.37553,-0.2817538 -1.868896,-0.8377245 -0.05889,-0.065511 -0.156842,-0.1049316 -0.262608,-0.1049316 -0.0679,0 -0.132206,0.017387 -0.181482,0.049856 -1.716858,1.1246985 -3.619389,2.2076525 -5.988225,3.4071372 -0.05108,0.025492 -0.09194,0.059129 -0.07512,0.079425 l -0.331718,-0.00166 C 10.725644,9.4727837 9.7605476,9.4688832 8.7960597,9.4515494 L 8.1897425,9.4364678 C 12.062806,7.1348912 15.668939,5.027536 19.207827,2.9972817 l 1.505334,-0.8609139 c 0.107563,-0.061454 0.252988,-0.1640691 0.413434,-0.2776993 0.341936,-0.241752 0.810661,-0.5727818 1.051033,-0.5727818 v -0.055656 c 0,0 0,0 4.18e-4,0 z m 8.741148,23.2690546 c -0.0029,0 -0.0061,0 -0.0091,0 -0.298062,0.0059 -0.631577,0.02203 -0.988529,0.03886 -0.525214,0.02549 -1.120137,0.05391 -1.715061,0.05391 -1.58706,0 -3.783461,-0.186096 -4.523208,-1.79488 -0.343732,-0.748445 -0.331115,-1.565876 0.04144,-2.572309 0.523413,-1.415145 1.438629,-2.097499 2.880267,-2.146199 0.496966,-0.01682 1.000546,-0.04115 1.506534,-0.06609 0.903799,-0.04407 1.838247,-0.08928 2.746256,-0.08928 0.335318,0 0.668835,0.0059 0.989131,0.01912 1.576845,0.340891 1.388754,2.354329 1.263761,3.68657 l -0.02765,0.311323 -0.01861,0.240013 c -0.05589,0.789028 -0.141218,1.98271 -0.957884,2.293452 -0.09916,0.03768 -0.240974,0.05566 -0.432071,0.05566 -0.135209,0 -0.275227,-0.0088 -0.406832,-0.01682 -0.115375,-0.0069 -0.224147,-0.01336 -0.348538,-0.01336 z M 4.9958397,10.031138 c 1.5233615,0.06957 3.1452781,0.112469 5.1055033,0.135082 1.133356,0.01335 2.267922,0.01856 3.401855,0.01856 1.606866,0 3.213749,-0.0099 4.820639,-0.0203 l 2.236069,-0.01275 c 0.899592,-0.0041 1.799786,-0.0075 2.699382,-0.0075 0.829888,0 1.659173,0.0028 2.489055,0.01049 0.812464,0.0075 1.62492,0.01856 2.43678,0.03825 0.961488,0.02319 0.983724,0.252185 0.9669,1.034836 -1.198857,-0.262043 -2.52091,-0.282336 -3.799694,-0.302045 -0.385194,-0.0059 -0.763181,-0.01158 -1.127342,-0.02437 -1.255949,-0.04289 -2.380891,-0.06436 -3.437331,-0.06436 -0.537233,0 -1.073864,0.0059 -1.610496,0.01738 -0.642394,0.01448 -1.284791,0.02086 -1.925983,0.02086 -1.349694,0 -2.7204,-0.02667 -4.046036,-0.05217 -1.324441,-0.02549 -2.694565,-0.0516 -4.0430464,-0.0516 -0.4044292,0 -0.8088498,0.0024 -1.2132779,0.0075 -0.3851957,0.0052 -0.8376989,0.04465 -1.316641,0.08639 -0.6021327,0.05333 -1.2246978,0.107833 -1.8340397,0.107833 -0.9128233,0 -1.5906736,-0.130442 -2.0720201,-0.398281 C 2.3264967,10.352328 2.0614933,10.050862 1.9358977,9.6775059 2.5187978,9.9946263 3.3637068,10.023032 4.1839764,10.023032 h 0.3299195 c 0.174268,0 0.3365183,0.0012 0.4819438,0.0081 z M 13.453321,9.4879207 C 14.223708,9.090798 15.101651,8.6293264 15.948358,8.1411821 16.251825,7.9661045 16.549887,7.7829043 16.847949,7.5991271 17.096735,7.4454952 17.346123,7.2918634 17.598513,7.1440296 17.727714,7.0680876 17.820261,7.00779 17.891767,6.962572 18.019165,6.880247 18.06604,6.8512624 18.11291,6.8512624 c 0.04207,0 0.100358,0.022029 0.197107,0.057971 l 0.312485,0.1095718 c 0.852117,0.2904475 1.468076,0.4997336 2.11107,0.4997336 0.473536,0 0.953681,-0.1182654 1.506537,-0.3716155 0.511993,0.8267102 1.135159,1.5670419 1.784765,2.3108482 l -1.400773,-0.00243 c -1.581649,0 -3.162701,0.00691 -4.744354,0.01622 -1.455451,0.00876 -2.912107,0.01622 -4.368134,0.01622 z m 17.02916,0.3310342 c -0.03605,0.2713161 -0.07332,0.5519121 -0.08113,0.8330841 -0.0072,0.239436 0.0061,0.477707 0.02045,0.715405 0.0061,0.102617 0.01141,0.204647 0.01564,0.307258 -0.179681,-0.09855 -0.380391,-0.185515 -0.569084,-0.249864 0.0025,-0.10377 0.01501,-0.229581 0.02886,-0.365239 0.04747,-0.467274 0.106368,-1.044691 -0.207322,-1.3623922 0.03605,-0.3345076 0.03425,-0.6458297 -0.01141,-0.9896166 C 29.644816,8.4519233 29.599753,8.1011814 29.379817,7.912764 29.194126,7.752759 28.903278,7.7359476 28.668917,7.7220328 l -0.08113,-0.00525 c -0.201912,-0.013923 -0.405027,-0.020297 -0.60874,-0.020297 -0.09194,0 -0.183888,0.00166 -0.223548,0.031301 L 27.061381,6.641917 c 1.605691,0.012747 3.378438,0.070143 3.497422,2.0430063 0.02342,0.3808873 -0.02706,0.7635192 -0.07632,1.1339739 z M 28.894823,8.4646812 c 0.0084,0.064928 0.02404,0.1298597 0.04027,0.1947905 0.01502,0.060296 0.03003,0.121166 0.03784,0.1826193 0.02342,0.1814565 0.03065,0.3808872 0.0204,0.5930749 -0.02163,-0.00243 -0.04266,-0.0037 -0.06249,-0.0037 -0.03123,0 -0.0583,0.0037 -0.07632,0.013914 -0.135809,-0.2156203 -0.669437,-1.0469697 -0.669437,-1.0469697 0.290249,0.00642 0.518603,0.024928 0.7097,0.066086 z M 16.810693,1.4086548 c 0.655016,0 1.081074,0.663222 1.456655,1.2476032 l 0.02284,0.035339 C 14.471281,4.8702621 10.634962,7.1567602 6.9236251,9.368474 L 6.8905901,9.403853 C 6.0979627,9.3800915 5.3059342,9.3510963 4.5139093,9.3116706 4.3967192,9.3058326 3.8276367,9.2745509 3.2862004,9.1823869 6.0198407,7.5596926 8.4482053,6.1341095 10.702887,4.8273774 c 1.316649,-0.7629421 2.63447,-1.5224019 3.955298,-2.2778033 0.171261,-0.097395 0.368364,-0.2336343 0.578086,-0.3779906 0.456703,-0.3147996 0.973504,-0.67134 1.385743,-0.7455456 0.0649,-0.011579 0.128,-0.017388 0.188693,-0.017388 z m 2.285343,29.8983902 c -1.250538,-0.01101 -2.522111,-0.05043 -3.751617,-0.0887 -1.415771,-0.04347 -2.880217,-0.08928 -4.320647,-0.0916 h -0.07211 c -0.412838,0 -0.824476,0.0059 -1.2337138,0.01218 -0.4062225,0.0059 -0.8106474,0.01158 -1.2144691,0.01158 -1.0985046,0 -2.3965111,-0.04002 -3.6987332,-0.339151 -0.9074141,-0.208125 -1.5185584,-0.658583 -1.9145729,-1.412827 0.1219867,0.03013 0.2433749,0.0458 0.3707722,0.04695 0.2259528,0 0.3449371,-0.172185 0.3461372,-0.342629 0.00124,-0.173343 -0.1183815,-0.350742 -0.3497418,-0.353062 -0.2133315,-0.0024 -0.3839957,-0.06492 -0.5360287,-0.19711 C 2.6672227,28.50629 2.6047273,28.477886 2.5338187,28.468607 2.4496863,28.176415 2.379979,27.870314 2.3108728,27.553777 2.0272386,26.253418 1.8727997,24.886968 1.8379461,23.374423 c -0.023436,-1.008168 0.018029,-2.030832 0.058293,-3.020448 0.042667,-1.069043 0.088337,-2.174606 0.051078,-3.26742 -0.021631,-0.667281 -0.056489,-1.340941 -0.091342,-2.017496 -0.030646,-0.597135 -0.061895,-1.196585 -0.084131,-1.796039 0.051077,0.03013 0.1027595,0.05971 0.1568433,0.08522 0.054088,0.02549 0.1093705,0.03885 0.1652577,0.03885 0.1694554,0 0.3281005,-0.126383 0.3689657,-0.293926 0.034833,-0.146675 -0.033035,-0.280595 -0.1778777,-0.349585 -0.1946969,-0.09218 -0.3779796,-0.194214 -0.5360237,-0.26378 -0.01322,-0.631341 -0.01202,-1.164122 0.00236,-1.663276 0.5252098,0.500892 1.4584577,0.755403 2.7763034,0.755403 0.167661,0 0.3275105,-0.0041 0.475939,-0.0099 1.3346724,-0.05215 2.4433887,-0.0765 3.4914134,-0.0765 1.153184,0 2.2102168,0.03013 3.2329988,0.0916 0.898391,0.05391 1.86768,0.08059 2.963759,0.08059 1.172406,0 2.365255,-0.03013 3.518442,-0.05912 1.152585,-0.029 2.344232,-0.05856 3.515448,-0.05856 0.454302,0 0.908005,0.0046 1.362311,0.01509 1.278182,0.02957 2.404329,0.07594 3.440932,0.142613 0.194702,0.01218 0.396015,0.02146 0.602133,0.03074 1.126749,0.05044 2.403728,0.107253 3.258854,0.773375 1.101507,0.858013 1.028792,2.512019 0.965093,3.971225 -0.01142,0.261461 -0.02225,0.51655 -0.02642,0.758298 l -0.270419,-0.0017 c -0.722924,0 -1.462068,0.03478 -2.177775,0.06783 -0.581103,0.02723 -1.162205,0.05449 -1.7391,0.06377 -1.305822,0.02203 -2.337621,0.03885 -3.247429,1.096292 -0.938656,1.091072 -1.374335,2.707391 -1.084081,4.021663 0.209723,0.949617 0.7752,1.669071 1.635733,2.07895 1.258351,0.600031 2.701786,0.65047 4.071313,0.65047 l 0.399619,-0.0012 0.566678,-0.0059 v 0.02611 c 0,0.22204 0.181478,0.337986 0.360556,0.337986 0.179077,0 0.36056,-0.115946 0.36056,-0.337986 v -0.03768 l 0.868344,-0.01391 c -0.05708,0.580318 -0.07691,1.169335 -0.09614,1.739801 -0.01861,0.528722 -0.03726,1.076581 -0.08534,1.612839 -0.170067,1.892852 -1.537182,2.389113 -3.538889,2.551438 -1.894735,0.153632 -3.984172,0.224938 -6.575992,0.224938 -0.560067,0 -1.120133,-0.0028 -1.6802,-0.0081 z M 33.866928,20.392843 c 0.02283,-1.54617 -0.09736,-2.759564 -1.818418,-3.122483 0.0012,-0.264361 0.0078,-0.536258 0.01384,-0.811637 0.03906,-1.572256 0.07872,-3.197851 -0.920627,-4.201959 l -0.05229,-0.03304 0.06851,-0.03248 c 0.02283,-0.365238 0.02404,-0.721778 0.02521,-1.077737 0.0017,-0.469012 0.0037,-0.954255 0.05588,-1.4452953 C 31.31596,8.9446922 31.351423,8.016528 30.937982,7.2530088 30.283568,6.0436725 28.814287,5.9422146 27.36484,5.9422146 l -0.74936,0.00282 C 25.859512,4.7803371 25.096328,3.620858 24.323533,2.4665913 24.237604,2.3378885 24.145655,2.1738242 24.045899,1.997002 23.711786,1.4056656 23.295942,0.6699764 22.716041,0.5122861 c -0.0739,-0.020293 -0.150834,-0.030135 -0.227753,-0.030135 -0.333514,0 -0.645401,0.1889939 -0.920626,0.3553785 -0.07331,0.043484 -0.144226,0.086962 -0.213934,0.1252247 -0.711502,0.3942259 -1.418196,0.7959844 -2.125494,1.1977463 l -0.31008,0.1762403 C 18.876084,2.2648566 18.832814,2.1871684 18.787151,2.106584 18.401353,1.4242305 17.873733,0.4902686 17.124974,0.4804122 c -0.43447,0 -0.85873,0.2834925 -1.233111,0.5327811 -0.125596,0.083481 -0.245775,0.1640639 -0.358749,0.2284175 -0.909198,0.5182891 -1.817192,1.0383165 -2.724586,1.5595026 -1.835842,1.0551284 -3.6674744,2.1195314 -5.4558396,3.1804579 -0.027062,-0.00759 -0.056493,-0.01622 -0.097347,-0.01622 l -0.1935005,0.00166 c -0.2343627,0 -0.4777414,-0.00525 -0.7259253,-0.010454 -0.260203,-0.00584 -0.5258128,-0.011014 -0.7926271,-0.011014 -1.3028243,0 -2.6332868,0.1275449 -3.5418902,1.0551283 C 1.4845925,7.5288129 1.1564848,8.3659604 1.1456678,9.1804946 0.95877788,10.93653 1.0441103,12.745321 1.1276384,14.495556 c 0.030646,0.64873 0.060695,1.296303 0.078721,1.939232 0.03125,1.186732 0.00541,2.393754 -0.019834,3.56077 -0.059495,2.804785 -0.1225901,5.704651 0.6165554,8.518712 0.4861489,1.855168 0.9614864,2.5439 2.8141651,2.968852 1.4031733,0.322335 2.7919276,0.365814 3.964343,0.365814 0.4669186,0 0.9356435,-0.0075 1.4067692,-0.01565 l 0.090739,-0.0017 c 0.495168,-0.0081 0.990336,-0.01158 1.484302,-0.01158 1.684997,0 3.397026,0.04174 5.052583,0.08233 1.656769,0.04059 3.370023,0.08233 5.056236,0.08233 1.212081,0 2.301567,-0.02087 3.330963,-0.06492 0.290248,-0.01275 0.586507,-0.01912 0.886372,-0.02611 1.807,-0.03941 3.675899,-0.08059 5.009366,-1.364703 0.950673,-0.915997 0.917022,-2.53347 0.886974,-3.960211 -0.01022,-0.499158 -0.02045,-0.971648 0.01022,-1.393119 0.0655,0.0012 0.13401,0.0037 0.202513,0.0064 0.08713,0.0036 0.176674,0.0069 0.265012,0.0069 0.213327,0 0.486152,-0.01912 0.709098,-0.168704 0.915822,-0.613369 0.901995,-2.927111 0.894786,-4.170075 -0.0012,-0.176245 -0.0025,-0.331615 -4.18e-4,-0.457418"
     style="fill:#ffffff;fill-opacity:1;fill-rule:nonzero;stroke:none;stroke-width:0.0590243"
     id="path924" />
  <path
     d="m 25.889449,22.537045 c -0.17583,0 -0.358848,-0.03428 -0.545181,-0.102294 -0.604346,-0.218956 -0.900713,-0.722116 -0.790681,-1.345258 0.118325,-0.674013 0.721011,-1.371803 1.525512,-1.371803 0.08128,0 0.163668,0.0072 0.23997,0.02047 0.438466,0.147079 0.745341,0.411373 0.88744,0.764141 0.146525,0.366585 0.101186,0.808373 -0.128278,1.245734 -0.266508,0.508689 -0.689494,0.789021 -1.188782,0.789021 z m 0.740916,-3.380016 c -0.03925,-0.02985 -0.08515,-0.04976 -0.128279,-0.05695 -0.02766,-0.0088 -0.05584,-0.01493 -0.101181,-0.01493 -0.01051,0 -0.02325,3.85e-4 -0.03652,0.0011 -0.09123,-0.01104 -0.182464,-0.01605 -0.273696,-0.01605 -0.979781,0 -1.823537,0.59384 -2.100553,1.478515 -0.350551,1.118009 0.130491,2.155845 1.169986,2.523538 0.24439,0.08626 0.489334,0.130492 0.729303,0.130492 0.841548,0 1.549842,-0.529702 1.893206,-1.416588 0.221722,-0.57117 0.230015,-1.119669 0.02266,-1.586335 -0.207347,-0.467772 -0.618167,-0.831043 -1.17496,-1.042812"
     style="fill:#ffffff;fill-opacity:1;fill-rule:nonzero;stroke:none;stroke-width:0.0552924"
     id="path926" />
  <path
     d="m 6.3105234,13.209243 c -0.00441,-0.14597 -0.1000821,-0.303004 -0.3223547,-0.303004 -3.846e-4,0 -1.0433692,0.06469 -1.0433692,0.06469 -0.2156433,0.01328 -0.3229088,0.19131 -0.3179338,0.360505 0.00441,0.145971 0.1000821,0.303555 0.3007913,0.303555 l 1.0649326,-0.06579 c 0.2156393,-0.01328 0.3229088,-0.19131 0.3179338,-0.359952"
     style="fill:#ffffff;fill-opacity:1;fill-rule:nonzero;stroke:none;stroke-width:0.0552924"
     id="path928" />
  <path
     d="m 9.291325,13.155055 c -0.0077,-0.170301 -0.125512,-0.290284 -0.320693,-0.290284 -0.0011,0 -1.2291491,0.108928 -1.2291491,0.108928 -0.2139769,0.01936 -0.3223507,0.206239 -0.3146126,0.373222 0.00773,0.171405 0.1277241,0.291388 0.2908368,0.291388 L 8.976712,13.528277 c 0.213981,-0.01936 0.322355,-0.206239 0.314613,-0.373222"
     style="fill:#ffffff;fill-opacity:1;fill-rule:nonzero;stroke:none;stroke-width:0.0552924"
     id="path930" />
  <path
     d="m 11.867933,13.314296 c 0.0023,-0.165875 -0.107266,-0.33728 -0.320696,-0.342259 -0.103949,-0.0023 -0.208452,-0.0035 -0.3124,-0.0035 -0.162559,0 -0.325118,0.0027 -0.48823,0.0088 -0.213981,0.0072 -0.322905,0.180804 -0.319588,0.347784 0.0027,0.152058 0.100078,0.315721 0.309633,0.315721 h 0.01439 c 0.160904,-0.0061 0.322359,-0.0088 0.483809,-0.0088 0.103398,0 0.319038,0.0035 0.319038,0.0035 0.204026,0 0.3124,-0.161454 0.314058,-0.32125"
     style="fill:#ffffff;fill-opacity:1;fill-rule:nonzero;stroke:none;stroke-width:0.0552924"
     id="path932" />
  <path
     d="m 14.890726,13.276145 c -0.0039,-0.148734 -0.100625,-0.308529 -0.323451,-0.308529 -3.85e-4,0 -3.85e-4,0 -0.0011,0 -0.321243,0.01605 -0.642485,0.02431 -0.964278,0.02431 l -0.07575,-3.85e-4 c -0.21066,0 -0.321243,0.16643 -0.321243,0.330647 -3.85e-4,0.164771 0.110033,0.332305 0.322347,0.333413 h 0.07465 c 0.324005,0 0.646907,-0.0084 0.969808,-0.02431 0.215088,-0.01104 0.3229,-0.186888 0.31903,-0.354976"
     style="fill:#ffffff;fill-opacity:1;fill-rule:nonzero;stroke:none;stroke-width:0.0552924"
     id="path934" />
  <path
     d="m 17.789134,13.391153 c 0.0084,-0.166981 -0.09952,-0.354976 -0.314059,-0.374882 -0.335072,-0.03151 -0.675672,-0.04699 -1.011848,-0.04699 h -0.09676 c -0.212322,0.0023 -0.322354,0.17085 -0.3218,0.336175 3.85e-4,0.163113 0.110582,0.327884 0.322905,0.327884 l 0.09566,-3.85e-4 c 0.332859,0 0.670143,0.01547 1.000789,0.04645 l 0.03594,0.0016 c 0.190759,0 0.283099,-0.14542 0.289179,-0.289732"
     style="fill:#ffffff;fill-opacity:1;fill-rule:nonzero;stroke:none;stroke-width:0.0552924"
     id="path936" />
  <path
     d="m 20.379025,13.656001 h 0.01439 c 0.208451,0 0.30687,-0.163663 0.309637,-0.315163 0.0035,-0.166983 -0.106161,-0.3406 -0.319592,-0.348893 -0.106161,-0.0034 -0.21011,-0.01327 -0.315167,-0.02377 -0.133803,-0.01274 -0.267611,-0.02544 -0.400865,-0.02544 -0.133808,0 -0.252685,0.01328 -0.363272,0.03981 -0.164217,0.03981 -0.257107,0.17417 -0.237202,0.342809 0.01823,0.153162 0.135466,0.308533 0.325117,0.308533 0.02709,0 0.05585,-0.0039 0.0846,-0.0105 0.07078,-0.01716 0.148737,-0.02544 0.237202,-0.02544 0.118878,0 0.239969,0.01439 0.360506,0.02932 0.102845,0.01216 0.205135,0.0249 0.304663,0.02874"
     style="fill:#ffffff;fill-opacity:1;fill-rule:nonzero;stroke:none;stroke-width:0.0552924"
     id="path938" />
  <path
     d="m 22.043874,13.571407 c 0.189651,0.0056 0.38041,0.0077 0.570615,0.0077 0.292496,0 0.584441,-0.0061 0.876937,-0.01823 0.21453,-0.0094 0.323458,-0.184126 0.319587,-0.35166 -0.0034,-0.150396 -0.100631,-0.31185 -0.323459,-0.31185 h -3.85e-4 c -0.290836,0.01216 -0.582228,0.01823 -0.872511,0.01823 -0.189101,0 -0.378751,-0.0023 -0.578911,-0.0077 -0.211768,0 -0.310741,0.165321 -0.3124,0.319033 -0.0023,0.166429 0.107265,0.338943 0.320697,0.344472"
     style="fill:#ffffff;fill-opacity:1;fill-rule:nonzero;stroke:none;stroke-width:0.0552924"
     id="path940" />
  <path
     d="m 25.296162,13.566432 h 3.85e-4 c 0.110032,-0.005 0.218956,-0.0072 0.327884,-0.0072 0.259873,0 0.523064,0.01328 0.784042,0.03871 l 0.03705,0.0023 c 0.188547,0 0.280333,-0.144867 0.28752,-0.288628 0.0083,-0.166984 -0.09897,-0.35553 -0.313508,-0.37654 -0.2643,-0.02597 -0.531911,-0.03925 -0.795101,-0.03925 -0.110582,0 -0.221168,0.0023 -0.331755,0.0066 -0.214535,0.0088 -0.322904,0.183017 -0.320142,0.351106 0.0034,0.150395 0.100632,0.312954 0.323458,0.312954"
     style="fill:#ffffff;fill-opacity:1;fill-rule:nonzero;stroke:none;stroke-width:0.0552924"
     id="path942" />
  <path
     d="m 28.153114,14.51635 c 0.05806,0.104502 0.155371,0.164771 0.267611,0.164771 0.122195,0 0.242736,-0.06966 0.306321,-0.176934 0.05917,-0.100078 0.05972,-0.213427 0.0011,-0.320696 -0.153712,-0.279778 -0.346684,-0.540203 -0.57504,-0.775197 -0.06303,-0.06525 -0.140442,-0.100077 -0.223381,-0.100077 -0.131042,0 -0.260979,0.09067 -0.315168,0.21951 -0.05142,0.121087 -0.02544,0.251577 0.06912,0.348893 0.184675,0.190205 0.338387,0.399761 0.469429,0.63973"
     style="fill:#ffffff;fill-opacity:1;fill-rule:nonzero;stroke:none;stroke-width:0.0552924"
     id="path944" />
  <path
     d="m 28.497031,15.582937 c -0.09344,0 -0.181358,0.0354 -0.239414,0.09621 -0.0564,0.05861 -0.08349,0.137678 -0.08018,0.228356 l 0.04036,0.938309 c 0.0084,0.210109 0.179148,0.319591 0.343365,0.319591 0.094,0 0.181362,-0.0354 0.239418,-0.09621 0.05639,-0.05861 0.08405,-0.137678 0.08017,-0.228355 l -0.03981,-0.93831 c -0.0088,-0.209559 -0.179701,-0.319591 -0.343918,-0.319591"
     style="fill:#ffffff;fill-opacity:1;fill-rule:nonzero;stroke:none;stroke-width:0.0552924"
     id="path946" />
  <path
     d="M 7.0143926,28.609789 6.2148667,28.56777 c -0.2034763,0 -0.2996831,0.159241 -0.3041085,0.307424 -0.00441,0.168643 0.1033948,0.345026 0.319038,0.356639 l 0.8139013,0.04257 c 0.2034763,0 0.3002372,-0.159795 0.3041079,-0.307976 0.00441,-0.168641 -0.1033981,-0.345025 -0.3334128,-0.356638"
     style="fill:#ffffff;fill-opacity:1;fill-rule:nonzero;stroke:none;stroke-width:0.0552924"
     id="path948" />
  <path
     d="M 10.060437,28.584355 8.60349,28.535145 c -0.209557,0 -0.307976,0.164217 -0.310742,0.316271 -0.0023,0.166983 0.10616,0.340046 0.320696,0.347234 l 1.456394,0.04921 c 0.209555,0 0.307967,-0.164221 0.310734,-0.316275 0.0027,-0.167534 -0.106708,-0.340047 -0.320135,-0.347234"
     style="fill:#ffffff;fill-opacity:1;fill-rule:nonzero;stroke:none;stroke-width:0.0552924"
     id="path950" />
  <path
     d="m 13.128592,28.534037 c -0.0023,0 -0.005,3.85e-4 -0.0072,3.85e-4 -0.221722,0.02655 -0.447308,0.03981 -0.669031,0.03981 -0.181917,0 -0.36438,-0.0088 -0.584999,-0.02874 -0.189097,0 -0.280882,0.145412 -0.287516,0.288624 -0.0083,0.16698 0.09842,0.35553 0.313505,0.376539 0.186888,0.01824 0.373222,0.02709 0.55901,0.02709 3.85e-4,0 3.85e-4,0 3.85e-4,0 0.22559,0 0.45505,-0.01381 0.681186,-0.04091 0.216193,-0.02544 0.321242,-0.218407 0.311843,-0.386494 -0.01051,-0.164777 -0.119981,-0.276468 -0.317374,-0.276468"
     style="fill:#ffffff;fill-opacity:1;fill-rule:nonzero;stroke:none;stroke-width:0.0552924"
     id="path952" />
  <path
     d="m 15.870494,28.49644 -0.903462,0.0354 c -0.214531,0.0088 -0.322905,0.182467 -0.319584,0.35 0.0027,0.151501 0.100631,0.314059 0.307971,0.314059 l 0.918392,-0.03593 c 0.214535,-0.0084 0.322909,-0.182467 0.320142,-0.350556 -0.0034,-0.150945 -0.100631,-0.312954 -0.323459,-0.312954"
     style="fill:#ffffff;fill-opacity:1;fill-rule:nonzero;stroke:none;stroke-width:0.0552924"
     id="path954" />
  <path
     d="m 18.90438,28.602047 -1.010743,-0.0011 c -0.211769,0 -0.322351,0.16698 -0.322351,0.331751 0,0.164775 0.110582,0.331754 0.322351,0.332308 l 1.011297,0.0011 c 0.211215,0 0.321801,-0.166987 0.321801,-0.331756 0,-0.164771 -0.110586,-0.331754 -0.322355,-0.332308"
     style="fill:#ffffff;fill-opacity:1;fill-rule:nonzero;stroke:none;stroke-width:0.0552924"
     id="path956" />
  <path
     d="m 21.750271,28.534591 c -0.02655,0 -0.05308,0.0034 -0.07962,0.0094 -0.281441,0.06303 -0.5767,0.0951 -0.878595,0.0951 -0.158137,0 -0.316271,-0.0088 -0.513664,-0.02874 -0.18523,0 -0.275908,0.142099 -0.283099,0.283094 -0.0094,0.167538 0.09676,0.358294 0.312403,0.382624 0.160347,0.01712 0.322905,0.02597 0.485464,0.02597 0.349447,0 0.701661,-0.03925 1.048341,-0.11667 0.164221,-0.03705 0.257661,-0.169188 0.239415,-0.336176 -0.01712,-0.152608 -0.138783,-0.314612 -0.330646,-0.314612"
     style="fill:#ffffff;fill-opacity:1;fill-rule:nonzero;stroke:none;stroke-width:0.0552924"
     id="path958" />
  <path
     d="m 24.350111,28.581587 c -3.84e-4,0 -0.0016,0 -0.0027,0 -0.06745,0.0056 -0.134912,0.0084 -0.202368,0.0084 -0.157583,0 -0.314613,-0.01381 -0.472196,-0.02709 -0.160346,-0.01382 -0.32125,-0.02766 -0.482147,-0.02766 -0.06966,0 -0.139891,0.0027 -0.210113,0.0088 -0.215086,0.01936 -0.322351,0.206794 -0.315163,0.373777 0.0061,0.143758 0.09786,0.289733 0.3218,0.289733 0.0011,0 0.0023,0 0.0034,0 0.0669,-0.0061 0.133808,-0.0088 0.200156,-0.0088 0.158138,0 0.315167,0.01381 0.472751,0.02709 0.160345,0.01381 0.320695,0.02763 0.481595,0.02763 0.07077,0 0.140992,-0.0027 0.211769,-0.0088 0.215085,-0.01936 0.322904,-0.206794 0.315167,-0.373223 -0.0061,-0.144312 -0.09787,-0.289733 -0.321801,-0.289733"
     style="fill:#ffffff;fill-opacity:1;fill-rule:nonzero;stroke:none;stroke-width:0.0552924"
     id="path960" />
  <path
     d="m 26.654694,29.09194 c 0.0011,0 0.0023,0 0.0034,0 l 0.05474,0.05308 c 0.209556,0 0.307975,-0.16422 0.310188,-0.316271 0.0027,-0.167538 -0.105608,-0.340601 -0.368248,-0.348342 -0.17638,0 -0.349447,0.03151 -0.51698,0.06192 -0.162559,0.02985 -0.33065,0.06082 -0.496527,0.06082 v 0.05198 c -0.0011,0 -0.0016,0 -0.0027,0 l -0.05474,-0.05309 c -0.209554,0 -0.307978,0.164222 -0.310741,0.31683 -0.0023,0.16698 0.106716,0.339488 0.320697,0.347235 l 0.04755,3.84e-4 c 0.176934,0 0.350001,-0.03205 0.517535,-0.06247 0.162558,-0.02932 0.330647,-0.06027 0.495972,-0.06027 v -0.05198"
     style="fill:#ffffff;fill-opacity:1;fill-rule:nonzero;stroke:none;stroke-width:0.0552924"
     id="path962" />
  <path
     d="m 27.725152,28.953706 0.02932,-0.0011 c 0.478275,-0.03705 0.871402,-0.278675 1.106397,-0.680094 0.06138,-0.104503 0.06414,-0.216747 0.0066,-0.316271 -0.06137,-0.107269 -0.18578,-0.1797 -0.309636,-0.1797 -0.112796,0 -0.209003,0.0575 -0.269272,0.160899 -0.123302,0.209556 -0.31572,0.333968 -0.542972,0.351656 -0.216189,0.01712 -0.322905,0.197393 -0.315717,0.367143 0.0066,0.175276 0.127725,0.297471 0.295262,0.297471"
     style="fill:#ffffff;fill-opacity:1;fill-rule:nonzero;stroke:none;stroke-width:0.0552924"
     id="path964" />
  <path
     d="m 28.65019,27.054418 c 0.162004,0 0.338388,-0.10782 0.36161,-0.312954 l 0.0846,-0.75695 c 0.0105,-0.09013 -0.01216,-0.169192 -0.06469,-0.227803 -0.05529,-0.06193 -0.141545,-0.09731 -0.235544,-0.09731 -0.162558,0 -0.339492,0.107266 -0.362718,0.314059 l -0.0846,0.755295 c -0.01,0.09068 0.01216,0.169192 0.06525,0.228357 0.05529,0.06192 0.140995,0.09731 0.236097,0.09731"
     style="fill:#ffffff;fill-opacity:1;fill-rule:nonzero;stroke:none;stroke-width:0.0552924"
     id="path966" />
  <path
     d="m 30.708721,19.261532 c 0.106712,0.201264 0.131594,0.450078 0.15537,0.690598 0.01162,0.121645 0.02378,0.241627 0.04533,0.354976 0.02932,0.150396 0.140441,0.24384 0.289179,0.24384 0.108373,0 0.216747,-0.05086 0.284757,-0.133254 0.06359,-0.07685 0.08791,-0.17583 0.06856,-0.278674 -0.02266,-0.11722 -0.03817,-0.237202 -0.05364,-0.357739 -0.04755,-0.373222 -0.09676,-0.759162 -0.363821,-1.065483 -0.343918,-0.393681 -0.850395,-0.44455 -1.254026,-0.44455 -0.08792,0 -0.17528,0.0027 -0.260982,0.0066 -0.214535,0.01 -0.322905,0.18523 -0.319034,0.353872 0.0035,0.149288 0.100631,0.310187 0.305766,0.310187 l 0.06082,-0.0027 c 0.0846,-0.0038 0.175276,-0.0083 0.267062,-0.0083 0.279778,0 0.620932,0.03759 0.774646,0.330646"
     style="fill:#ffffff;fill-opacity:1;fill-rule:nonzero;stroke:none;stroke-width:0.0552924"
     id="path968" />
  <path
     d="m 31.097977,20.967294 c -0.164771,0 -0.331755,0.110586 -0.331755,0.35166 0,0.211772 0.166984,0.322355 0.331755,0.322355 0.0857,0 0.165325,-0.0282 0.226144,-0.08017 0.06912,-0.05917 0.105057,-0.143208 0.105057,-0.271486 0,-0.211769 -0.166984,-0.322355 -0.331201,-0.322355"
     style="fill:#ffffff;fill-opacity:1;fill-rule:nonzero;stroke:none;stroke-width:0.0552924"
     id="path970" />
  <path
     d="m 19.282578,4.9972381 c -0.06414,-0.097865 -0.161454,-0.1520539 -0.274249,-0.1520539 -0.129383,0 -0.256557,0.073543 -0.31572,0.1830179 -0.05308,0.097869 -0.04589,0.2073469 0.01989,0.3085325 0.264296,0.4052905 0.523065,0.8144517 0.776855,1.2269341 0.06304,0.1006315 0.159796,0.1564785 0.272591,0.1564785 0.12662,0 0.252132,-0.072986 0.312401,-0.1819127 0.05529,-0.09842 0.05086,-0.2095564 -0.01273,-0.3124003 C 19.807265,5.8133518 19.547392,5.4036367 19.282543,4.9972381"
     style="fill:#ffffff;fill-opacity:1;fill-rule:nonzero;stroke:none;stroke-width:0.0552924"
     id="path972" />
  <path
     d="m 20.436527,4.8175414 c -0.09068,-0.184125 -0.09068,-0.1918672 -0.01439,-0.2654062 0.01604,-0.00835 0.03205,-0.012732 0.04866,-0.012732 0.124958,0 0.265399,0.2333351 0.348338,0.3704596 0.05142,0.084048 0.103949,0.1703009 0.120537,0.2609788 0.01,0.051976 0.005,0.093443 -0.06414,0.1376785 -0.03039,0 -0.0669,-0.014393 -0.10229,-0.039254 -0.1327,-0.097316 -0.264295,-0.3041087 -0.33673,-0.451738 z m 0.01716,-0.9554505 c -0.13215,0 -0.261532,0.042019 -0.385389,0.1244074 l 0.03098,0.045889 v 0 l -0.09233,0.00158 c -0.374881,0.3223547 -0.390915,0.7652425 -0.04699,1.2800148 0.193521,0.2891784 0.497075,0.6740134 0.905686,0.6740134 0.112242,0 0.226144,-0.030392 0.338388,-0.090126 0.192418,-0.1017359 0.316271,-0.2499191 0.368248,-0.439574 0.07077,-0.256557 0.0011,-0.584991 -0.190759,-0.9001576 C 21.254334,4.349134 20.909312,3.8620083 20.453704,3.8620083"
     style="fill:#ffffff;fill-opacity:1;fill-rule:nonzero;stroke:none;stroke-width:0.0552924"
     id="path974" />
  <path
     d="m 21.941584,3.6868151 c 0.01605,-0.00835 0.03205,-0.012157 0.04811,-0.012157 0.125511,0 0.266507,0.2338863 0.347784,0.3682473 0.05198,0.084595 0.105057,0.1719591 0.122195,0.2626371 0.0094,0.052533 0.0039,0.093998 -0.06525,0.1382325 -0.02985,0 -0.06635,-0.013808 -0.101737,-0.03981 C 22.160538,4.307758 22.028389,4.1004111 21.955958,3.9527818 21.865275,3.7686605 21.865275,3.7609183 21.941565,3.686829 Z M 21.526339,3.1692765 c -0.374884,0.3223548 -0.391469,0.7652454 -0.047,1.2794636 0.193526,0.2897324 0.49708,0.6745646 0.905137,0.6745646 0.11224,0 0.226698,-0.030391 0.338937,-0.090126 0.192419,-0.1022935 0.316276,-0.2499228 0.368249,-0.440128 0.07078,-0.2565569 0.0011,-0.5844406 -0.19131,-0.8996044 -0.126619,-0.2095592 -0.471642,-0.696131 -0.927804,-0.696131 -0.132149,0 -0.261532,0.042019 -0.38539,0.1244074 l -0.06082,0.04755"
     style="fill:#ffffff;fill-opacity:1;fill-rule:nonzero;stroke:none;stroke-width:0.0552924"
     id="path976" />
  <text
     id="text276"
     y="25.066669"
     x="43.972092"
     style="font-style:normal;font-variant:normal;font-weight:500;font-stretch:normal;font-size:21.33333333px;line-height:1.25;font-family:'Roboto Slab';-inkscape-font-specification:'Roboto Slab Medium';fill:#ffffff;fill-opacity:1;stroke:none;"
     xml:space="preserve"><tspan
       y="25.066669"
       x="43.972092"
       id="tspan274"
       sodipodi:role="line">webCoins</tspan></text>
</svg>
